<svg width="210" height="9" viewBox="0 0 210 9" fill="none" xmlns="http://www.w3.org/2000/svg">
<path d="M7.59534 5.9619C7.52282 6.90441 7.15169 7.64639 6.48196 8.18783C5.81648 8.72928 4.93772 9 3.84566 9C2.65122 9 1.7106 8.62299 1.0238 7.86898C0.341268 7.11096 0 6.07219 0 4.75267V4.21725C0 3.375 0.157836 2.63302 0.473509 1.99131C0.789182 1.3496 1.23923 0.858289 1.82365 0.51738C2.41234 0.17246 3.09487 0 3.87126 0C4.94625 0 5.81222 0.270722 6.46916 0.812166C7.1261 1.35361 7.50576 2.11364 7.60814 3.09225H5.68851C5.64158 2.52674 5.47308 2.11765 5.183 1.86497C4.89719 1.60829 4.45994 1.47995 3.87126 1.47995C3.23138 1.47995 2.75147 1.69652 2.43153 2.12968C2.11586 2.55882 1.95376 3.2266 1.94523 4.13302V4.79479C1.94523 5.74131 2.09666 6.43316 2.39954 6.87032C2.70668 7.30749 3.18872 7.52607 3.84566 7.52607C4.43861 7.52607 4.88013 7.39973 5.17021 7.14706C5.46455 6.89037 5.63305 6.49532 5.67571 5.9619H7.59534Z" fill="white"/>
<path d="M18.2096 8.87968H16.29V5.12567H12.5467V8.87968H10.6271V0.120321H12.5467V3.66979H16.29V0.120321H18.2096V8.87968Z" fill="white"/>
<path d="M27.0386 7.07487H23.6729L23.033 8.87968H20.9918L24.4599 0.120321H26.2388L29.7261 8.87968H27.6849L27.0386 7.07487ZM24.1912 5.61297H26.5203L25.3494 2.33422L24.1912 5.61297Z" fill="white"/>
<path d="M35.8165 5.67313H34.2872V8.87968H32.3675V0.120321H35.8293C36.9299 0.120321 37.7788 0.350936 38.376 0.812166C38.9732 1.2734 39.2718 1.92513 39.2718 2.76738C39.2718 3.36497 39.1332 3.8643 38.8559 4.26537C38.5829 4.66243 38.167 4.97928 37.6081 5.21591L39.6237 8.79545V8.87968H37.5633L35.8165 5.67313ZM34.2872 4.21123H35.8357C36.3177 4.21123 36.691 4.09692 36.9555 3.86832C37.2199 3.63569 37.3522 3.31684 37.3522 2.91176C37.3522 2.49866 37.2263 2.1738 36.9747 1.93717C36.7272 1.70053 36.3454 1.58222 35.8293 1.58222H34.2872V4.21123Z" fill="white"/>
<path d="M47.7681 7.07487H44.4024L43.7625 8.87968H41.7213L45.1894 0.120321H46.9683L50.4556 8.87968H48.4144L47.7681 7.07487ZM44.9207 5.61297H47.2498L46.0788 2.33422L44.9207 5.61297Z" fill="white"/>
<path d="M60.27 5.9619C60.1975 6.90441 59.8264 7.64639 59.1566 8.18783C58.4912 8.72928 57.6124 9 56.5203 9C55.3259 9 54.3853 8.62299 53.6985 7.86898C53.016 7.11096 52.6747 6.07219 52.6747 4.75267V4.21725C52.6747 3.375 52.8325 2.63302 53.1482 1.99131C53.4639 1.3496 53.9139 0.858289 54.4983 0.51738C55.087 0.17246 55.7696 0 56.5459 0C57.6209 0 58.4869 0.270722 59.1438 0.812166C59.8008 1.35361 60.1804 2.11364 60.2828 3.09225H58.3632C58.3163 2.52674 58.1478 2.11765 57.8577 1.86497C57.5719 1.60829 57.1346 1.47995 56.5459 1.47995C55.9061 1.47995 55.4262 1.69652 55.1062 2.12968C54.7905 2.55882 54.6284 3.2266 54.6199 4.13302V4.79479C54.6199 5.74131 54.7713 6.43316 55.0742 6.87032C55.3814 7.30749 55.8634 7.52607 56.5203 7.52607C57.1133 7.52607 57.5548 7.39973 57.8449 7.14706C58.1392 6.89037 58.3077 6.49532 58.3504 5.9619H60.27Z" fill="white"/>
<path d="M70.1229 1.58222H67.269V8.87968H65.3494V1.58222H62.5339V0.120321H70.1229V1.58222Z" fill="white"/>
<path d="M78.5999 5.08356H74.9143V7.42981H79.2398V8.87968H72.9946V0.120321H79.227V1.58222H74.9143V3.66979H78.5999V5.08356Z" fill="white"/>
<path d="M85.5861 5.67313H84.0568V8.87968H82.1372V0.120321H85.5989C86.6995 0.120321 87.5484 0.350936 88.1456 0.812166C88.7429 1.2734 89.0415 1.92513 89.0415 2.76738C89.0415 3.36497 88.9028 3.8643 88.6255 4.26537C88.3525 4.66243 87.9366 4.97928 87.3778 5.21591L89.3934 8.79545V8.87968H87.333L85.5861 5.67313ZM84.0568 4.21123H85.6053C86.0874 4.21123 86.4606 4.09692 86.7251 3.86832C86.9896 3.63569 87.1218 3.31684 87.1218 2.91176C87.1218 2.49866 86.996 2.1738 86.7443 1.93717C86.4969 1.70053 86.1151 1.58222 85.5989 1.58222H84.0568V4.21123Z" fill="white"/>
<path d="M102.457 5.08356H98.7714V7.42981H103.097V8.87968H96.8518V0.120321H103.084V1.58222H98.7714V3.66979H102.457V5.08356Z" fill="white"/>
<path d="M113.571 8.87968H111.651L107.914 3.11631V8.87968H105.994V0.120321H107.914L111.657 5.89572V0.120321H113.571V8.87968Z" fill="white"/>
<path d="M124.332 5.9619C124.259 6.90441 123.888 7.64639 123.219 8.18783C122.553 8.72928 121.674 9 120.582 9C119.388 9 118.447 8.62299 117.76 7.86898C117.078 7.11096 116.737 6.07219 116.737 4.75267V4.21725C116.737 3.375 116.894 2.63302 117.21 1.99131C117.526 1.3496 117.976 0.858289 118.56 0.51738C119.149 0.17246 119.831 0 120.608 0C121.683 0 122.549 0.270722 123.206 0.812166C123.863 1.35361 124.242 2.11364 124.345 3.09225H122.425C122.378 2.52674 122.21 2.11765 121.92 1.86497C121.634 1.60829 121.197 1.47995 120.608 1.47995C119.968 1.47995 119.488 1.69652 119.168 2.12968C118.852 2.55882 118.69 3.2266 118.682 4.13302V4.79479C118.682 5.74131 118.833 6.43316 119.136 6.87032C119.443 7.30749 119.925 7.52607 120.582 7.52607C121.175 7.52607 121.617 7.39973 121.907 7.14706C122.201 6.89037 122.37 6.49532 122.412 5.9619H124.332Z" fill="white"/>
<path d="M130.576 4.06684L132.515 0.120321H134.614L131.555 5.70321V8.87968H129.603V5.70321L126.545 0.120321H128.65L130.576 4.06684Z" fill="white"/>
<path d="M144.358 5.9619C144.285 6.90441 143.914 7.64639 143.244 8.18783C142.579 8.72928 141.7 9 140.608 9C139.413 9 138.473 8.62299 137.786 7.86898C137.103 7.11096 136.762 6.07219 136.762 4.75267V4.21725C136.762 3.375 136.92 2.63302 137.236 1.99131C137.551 1.3496 138.001 0.858289 138.586 0.51738C139.175 0.17246 139.857 0 140.633 0C141.708 0 142.574 0.270722 143.231 0.812166C143.888 1.35361 144.268 2.11364 144.37 3.09225H142.451C142.404 2.52674 142.235 2.11765 141.945 1.86497C141.659 1.60829 141.222 1.47995 140.633 1.47995C139.994 1.47995 139.514 1.69652 139.194 2.12968C138.878 2.55882 138.716 3.2266 138.707 4.13302V4.79479C138.707 5.74131 138.859 6.43316 139.162 6.87032C139.469 7.30749 139.951 7.52607 140.608 7.52607C141.201 7.52607 141.642 7.39973 141.932 7.14706C142.227 6.89037 142.395 6.49532 142.438 5.9619H144.358Z" fill="white"/>
<path d="M149.309 7.42981H153.385V8.87968H147.389V0.120321H149.309V7.42981Z" fill="white"/>
<path d="M163.507 4.69853C163.507 5.56083 163.344 6.31684 163.02 6.96658C162.696 7.61631 162.231 8.11765 161.625 8.47059C161.024 8.82353 160.333 9 159.552 9C158.78 9 158.091 8.82553 157.485 8.4766C156.88 8.12767 156.41 7.63035 156.078 6.98463C155.745 6.33489 155.576 5.5889 155.572 4.74666V4.3135C155.572 3.4512 155.736 2.69318 156.065 2.03944C156.397 1.38168 156.865 0.878342 157.466 0.529412C158.072 0.176471 158.763 0 159.539 0C160.316 0 161.005 0.176471 161.606 0.529412C162.212 0.878342 162.679 1.38168 163.007 2.03944C163.34 2.69318 163.507 3.4492 163.507 4.30749V4.69853ZM161.561 4.30147C161.561 3.38302 161.386 2.68516 161.037 2.20789C160.687 1.73061 160.188 1.49198 159.539 1.49198C158.895 1.49198 158.398 1.72861 158.048 2.20187C157.699 2.67112 157.522 3.36096 157.517 4.27139V4.69853C157.517 5.59291 157.692 6.28676 158.042 6.78008C158.392 7.2734 158.895 7.52005 159.552 7.52005C160.196 7.52005 160.691 7.28342 161.037 6.81016C161.382 6.33289 161.557 5.63904 161.561 4.72861V4.30147Z" fill="white"/>
<path d="M168.592 5.79345V8.87968H166.673V0.120321H170.307C171.007 0.120321 171.621 0.240642 172.15 0.481283C172.683 0.721925 173.093 1.06484 173.379 1.51003C173.664 1.9512 173.807 2.45455 173.807 3.02005C173.807 3.87834 173.494 4.55615 172.867 5.05348C172.244 5.54679 171.38 5.79345 170.275 5.79345H168.592ZM168.592 4.33155H170.307C170.815 4.33155 171.201 4.21925 171.465 3.99465C171.734 3.77005 171.868 3.4492 171.868 3.03209C171.868 2.60294 171.734 2.25602 171.465 1.99131C171.197 1.7266 170.825 1.59024 170.352 1.58222H168.592V4.33155Z" fill="white"/>
<path d="M182.508 5.08356H178.823V7.42981H183.148V8.87968H176.903V0.120321H183.135V1.58222H178.823V3.66979H182.508V5.08356Z" fill="white"/>
<path d="M186.046 8.87968V0.120321H188.912C189.731 0.120321 190.463 0.294786 191.107 0.643717C191.755 0.988636 192.261 1.48195 192.623 2.12366C192.986 2.76136 193.167 3.4873 193.167 4.30147V4.70455C193.167 5.51872 192.988 6.24265 192.63 6.87634C192.276 7.51003 191.775 8.00134 191.126 8.35027C190.478 8.6992 189.746 8.87567 188.931 8.87968H186.046ZM187.965 1.58222V7.42981H188.893C189.644 7.42981 190.218 7.1992 190.614 6.73797C191.011 6.27674 191.214 5.61698 191.222 4.75869V4.29545C191.222 3.40508 191.026 2.73128 190.633 2.27406C190.241 1.81283 189.667 1.58222 188.912 1.58222H187.965Z" fill="white"/>
<path d="M198.381 8.87968H196.461V0.120321H198.381V8.87968Z" fill="white"/>
<path d="M207.312 7.07487H203.947L203.307 8.87968H201.266L204.734 0.120321H206.513L210 8.87968H207.959L207.312 7.07487ZM204.465 5.61297H206.794L205.623 2.33422L204.465 5.61297Z" fill="white"/>
</svg>
